<?xml version="1.0" encoding="UTF-8" standalone="no"?>
<!-- Created with Inkscape (http://www.inkscape.org/) -->

<svg
   xmlns:dc="http://purl.org/dc/elements/1.1/"
   xmlns:cc="http://creativecommons.org/ns#"
   xmlns:rdf="http://www.w3.org/1999/02/22-rdf-syntax-ns#"
   xmlns:svg="http://www.w3.org/2000/svg"
   xmlns="http://www.w3.org/2000/svg"
   xmlns:xlink="http://www.w3.org/1999/xlink"
   xmlns:sodipodi="http://sodipodi.sourceforge.net/DTD/sodipodi-0.dtd"
   xmlns:inkscape="http://www.inkscape.org/namespaces/inkscape"
   width="210mm"
   height="211mm"
   viewBox="0 0 744.09449 747.63779"
   id="svg2"
   version="1.1"
   inkscape:version="0.91 r13725"
   sodipodi:docname="example2.svg"
   inkscape:export-filename="/Users/SunYuLi/Desktop/jongkhurun.png"
   inkscape:export-xdpi="90"
   inkscape:export-ydpi="90">
  <defs
     id="defs4">
    <inkscape:path-effect
       effect="spiro"
       id="path-effect4429"
       is_visible="true" />
    <inkscape:path-effect
       is_visible="true"
       id="path-effect4425"
       effect="spiro" />
    <inkscape:path-effect
       effect="spiro"
       id="path-effect4386"
       is_visible="true" />
    <inkscape:path-effect
       effect="spiro"
       id="path-effect4376"
       is_visible="true" />
    <inkscape:path-effect
       effect="spiro"
       id="path-effect4348"
       is_visible="true" />
    <inkscape:path-effect
       effect="spiro"
       id="path-effect4335"
       is_visible="true" />
    <inkscape:path-effect
       effect="spiro"
       id="path-effect4331"
       is_visible="true" />
    <inkscape:path-effect
       effect="spiro"
       id="path-effect4327"
       is_visible="true" />
    <inkscape:path-effect
       effect="spiro"
       id="path-effect4323"
       is_visible="true" />
    <inkscape:path-effect
       effect="spiro"
       id="path-effect4319"
       is_visible="true" />
    <inkscape:path-effect
       effect="spiro"
       id="path-effect3515"
       is_visible="true" />
    <inkscape:path-effect
       effect="spiro"
       id="path-effect3511"
       is_visible="true" />
    <inkscape:path-effect
       effect="spiro"
       id="path-effect3379"
       is_visible="true" />
    <inkscape:path-effect
       effect="spiro"
       id="path-effect3375"
       is_visible="true" />
    <inkscape:path-effect
       effect="spiro"
       id="path-effect3370"
       is_visible="true" />
    <inkscape:path-effect
       effect="spiro"
       id="path-effect4132"
       is_visible="true" />
    <filter
       style="color-interpolation-filters:sRGB"
       inkscape:label="Drop Shadow"
       id="filter4495">
      <feFlood
         flood-opacity="0.498039"
         flood-color="rgb(0,0,0)"
         result="flood"
         id="feFlood4497" />
      <feComposite
         in="flood"
         in2="SourceGraphic"
         operator="in"
         result="composite1"
         id="feComposite4499" />
      <feGaussianBlur
         in="composite1"
         stdDeviation="3"
         result="blur"
         id="feGaussianBlur4501" />
      <feOffset
         dx="6"
         dy="6"
         result="offset"
         id="feOffset4503" />
      <feComposite
         in="SourceGraphic"
         in2="offset"
         operator="over"
         result="composite2"
         id="feComposite4505" />
    </filter>
  </defs>
  <sodipodi:namedview
     id="base"
     pagecolor="#ffffff"
     bordercolor="#666666"
     borderopacity="1.0"
     inkscape:pageopacity="0.0"
     inkscape:pageshadow="2"
     inkscape:zoom="0.9899495"
     inkscape:cx="219.96282"
     inkscape:cy="358.22605"
     inkscape:document-units="px"
     inkscape:current-layer="layer4"
     showgrid="false"
     inkscape:window-width="1920"
     inkscape:window-height="995"
     inkscape:window-x="15"
     inkscape:window-y="0"
     inkscape:window-maximized="0"
     showguides="true"
     inkscape:guide-bbox="true">
    <inkscape:grid
       type="xygrid"
       id="grid4043" />
    <sodipodi:guide
       position="797.01036,376.78688"
       orientation="0,1"
       id="guide3364"
       inkscape:label=""
       inkscape:color="rgb(0,0,255)" />
    <sodipodi:guide
       position="365.67522,-22.223356"
       orientation="1,0"
       id="guide3366"
       inkscape:label=""
       inkscape:color="rgb(0,0,255)" />
  </sodipodi:namedview>
  <metadata
     id="metadata7">
    <rdf:RDF>
      <cc:Work
         rdf:about="">
        <dc:format>image/svg+xml</dc:format>
        <dc:type
           rdf:resource="http://purl.org/dc/dcmitype/StillImage" />
        <dc:title />
      </cc:Work>
    </rdf:RDF>
  </metadata>
  <g
     inkscape:label="bg"
     inkscape:groupmode="layer"
     id="layer1"
     style="display:none"
     transform="translate(0,-304.72441)"
     sodipodi:insensitive="true">
    <ellipse
       style="opacity:0;fill:none;fill-opacity:1"
       id="path4008"
       cx="180"
       cy="138.07649"
       rx="209.28572"
       ry="105.71429" />
    <path
       style="opacity:0;fill:#666666;fill-opacity:1"
       d="m 450,262.36221 a 100,100 0 0 1 -100,100 100,100 0 0 1 -100,-100 100,100 0 0 1 100,-100 100,100 0 0 1 100,100 z"
       id="path4134"
       inkscape:connector-curvature="0" />
    <ellipse
       style="opacity:0;fill:#666666;fill-opacity:1"
       id="path4137"
       cx="260"
       cy="272.36221"
       rx="110"
       ry="90" />
    <ellipse
       style="opacity:0;fill:#666666;fill-opacity:1"
       id="path4139"
       cx="170"
       cy="147.3622"
       rx="100"
       ry="45" />
    <ellipse
       style="opacity:0;fill:#666666;fill-opacity:1"
       id="path4141"
       cx="40"
       cy="162.3622"
       rx="210"
       ry="10" />
    <path
       style="opacity:0;fill:#0000ff;fill-opacity:1;stroke:#cccccc;stroke-width:5.05076265;stroke-miterlimit:4;stroke-dasharray:none;stroke-opacity:1"
       d="M 341.29166,712.44829 C 267.315,706.16594 196.92497,676.88187 141.78653,629.449 49.871357,550.37894 5.3006393,431.85177 22.641361,312.60557 31.533159,251.45971 55.022842,196.65757 93.866362,146.43547 104.95632,132.09689 135.45206,101.33468 150.37283,89.435244 204.27078,46.4512 269.52848,20.322913 338.64524,14.053562 c 19.28247,-1.749048 61.1198,-0.713928 78.91294,1.952429 25.44603,3.813166 49.28217,9.604489 69.18873,16.810369 122.03736,44.175717 209.43771,149.96596 228.77859,276.9158 4.60563,30.23048 5.20935,67.94353 1.54178,96.31252 -5.74116,44.40854 -19.76648,87.92094 -40.44472,125.47641 -37.72565,68.51673 -98.0879,123.2265 -169.73072,153.83671 -32.72614,13.98261 -70.79514,23.53613 -106.50626,26.72803 -10.60779,0.94814 -49.39591,1.18605 -59.09392,0.36246 z m 64.64976,-80.46885 c 32.63026,-15.83667 34.32922,-16.79729 34.0253,-19.23872 -0.17593,-1.41336 -4.36038,-24.27481 -9.29876,-50.80322 -4.9384,-26.52842 -8.88557,-48.27846 -8.77149,-48.33342 2.89282,-1.39365 163.90166,-39.9161 168.56426,-40.33013 14.90166,-1.32324 33.31944,-7.77802 47.90806,-16.79007 16.92883,-10.4577 35.66676,-31.72591 43.84779,-49.76878 6.66217,-14.69309 11.09933,-33.01781 11.10918,-45.87892 l 0.004,-5.30747 -118.20701,0.25671 -118.20701,0.25671 -3.31491,9.64419 c -8.40049,24.43994 -25.45667,44.30531 -47.90467,55.79468 -7.96628,4.07732 -8.44691,4.19485 -11.11168,2.7172 -3.78405,-2.0983 -10.0137,-14.67195 -11.95114,-24.12163 -0.84385,-4.11583 -1.3002,-8.09331 -1.01413,-8.83884 0.36608,-0.95396 2.5997,-1.35549 7.54032,-1.35549 8.19943,0 10.21584,-0.58517 10.21584,-2.9647 0,-0.95612 -4.08606,-8.10251 -9.08013,-15.88089 l -9.08013,-14.14248 -10.64998,-2.5754 -10.64996,-2.57541 -9.47731,2.54565 -9.47729,2.54563 -8.31533,33.44386 c -4.57344,18.39411 -8.50075,33.78071 -8.72737,34.19244 -1.36797,2.48542 -20.67691,-9.56619 -30.75774,-19.19735 -11.95577,-11.42247 -20.41667,-24.6148 -25.53505,-39.8145 l -2.49076,-7.39666 -112.33311,-0.25694 -112.333123,-0.25695 0.59849,10.86355 c 2.404326,43.6424 31.204603,81.88563 72.885463,96.78295 11.50959,4.11368 24.10314,6.48929 34.78528,6.56178 6.92216,0.047 14.8602,2.11945 78.91212,20.60242 39.16866,11.3026 71.16554,20.93869 71.10416,21.41351 -0.0614,0.47483 -4.35657,23.69073 -9.54487,51.59089 -5.1883,27.90018 -9.22919,50.91731 -8.97977,51.14919 0.24942,0.23189 18.56679,8.61151 40.70528,18.62138 l 40.25179,18.19978 5.20507,-2.34279 c 2.86279,-1.28854 20.66041,-9.84383 39.55026,-19.01176 z m 182.55127,-336.799 c 19.73907,-19.96358 23.66227,-24.56659 25.13883,-29.49492 1.02375,-3.41697 0.91512,-4.46004 -0.81306,-7.80638 -2.35091,-4.55219 -8.41503,-8.36771 -13.33685,-8.39149 -3.39129,-0.0164 -3.41353,-0.0454 -1.58542,-2.06542 1.81807,-2.00894 1.76823,-2.13635 -2.56158,-6.5481 -4.24312,-4.32343 -4.49168,-4.4309 -6.359,-2.74942 -1.0688,0.96243 -11.51121,11.65771 -23.20534,23.76729 l -21.26206,22.01741 4.45158,4.53582 4.45157,4.53583 17.68384,-18.19426 c 18.67332,-19.21231 21.09869,-20.89003 25.77242,-17.82769 5.47152,3.58508 2.63104,9.43271 -11.08312,22.8165 -4.26974,4.16688 -10.98046,11.12253 -14.91273,15.457 l -7.14959,7.88086 3.8946,3.98843 c 2.14203,2.19364 4.17592,3.98844 4.51977,3.98844 0.34383,0 7.7041,-7.15946 16.35614,-15.9099 z m -442.86792,12.45762 c 3.77257,-1.98046 9.96481,-8.5933 11.25391,-12.01831 1.56999,-4.17135 1.30811,-9.48023 -0.67439,-13.67117 -0.95959,-2.02851 -10.61917,-12.92428 -21.46574,-24.21281 -10.84659,-11.28854 -23.88525,-24.9256 -28.97481,-30.30458 l -9.253758,-9.77996 -4.635844,4.50347 c -2.549714,2.47691 -4.635844,4.9114 -4.635844,5.40998 0,0.49858 11.433011,12.68223 25.406686,27.07476 13.97369,14.39253 26.47432,27.61533 27.7792,29.38399 4.5018,6.10186 2.06943,12.70484 -5.36777,14.57146 -1.29869,0.32595 -2.36125,0.86708 -2.36125,1.20251 0,0.94774 8.396,9.27263 9.35186,9.27263 0.4675,0 2.07748,-0.64438 3.57775,-1.43197 z m 44.30863,-37.54899 c 9.66839,-5.55794 11.51125,-15.99852 5.11002,-28.95052 -6.48578,-13.12307 -17.24943,-25.57596 -25.4841,-29.48357 -7.15669,-3.39608 -17.24759,-0.6087 -22.43964,6.19842 -7.33494,9.6166 -1.5483,27.85834 14.07875,44.38163 10.83689,11.45842 18.71778,13.61248 28.73497,7.85404 z m 345.78232,-1.91454 c 3.94408,-2.03957 7.76187,-6.96978 22.25475,-28.73926 l 12.39751,-18.62206 -2.83119,-2.25751 c -3.4429,-2.74527 -7.41233,-4.93203 -7.90953,-4.35734 -0.201,0.23232 -5.94215,8.83193 -12.7581,19.11023 -6.81596,10.27831 -13.32267,19.7106 -14.45936,20.96067 -3.77545,4.15202 -11.81606,1.84489 -11.81606,-3.39044 0,-3.53523 1.73132,-6.57282 15.44655,-27.10092 l 12.10434,-18.11698 -2.8312,-2.25751 c -3.42762,-2.73309 -7.41606,-4.93526 -7.89178,-4.35734 -3.16724,3.84772 -26.7617,39.99012 -28.16186,43.1388 -3.65951,8.22962 -2.13169,15.37871 4.47913,20.95909 7.21083,6.08687 16.03023,8.10566 21.9768,5.03057 z M 292.44747,251.52796 c 10.28611,-3.90841 13.968,-10.34675 12.02314,-21.02429 -0.57918,-3.17976 -5.03202,-21.14303 -9.89519,-39.91838 l -8.84215,-34.137 -2.52538,0.60539 c -9.68547,2.32187 -9.84191,2.40631 -9.33839,5.04031 0.58013,3.03479 0.64879,3.02629 -4.25351,0.52695 -5.85513,-2.98512 -13.2579,-0.59396 -16.40005,5.29738 -5.17606,9.70476 2.45174,44.20184 12.12312,54.82739 3.35714,3.68835 5.0851,4.76138 8.36051,5.19165 5.09209,0.66893 10.00112,-1.63419 12.37422,-5.8055 0.92388,-1.62394 1.94635,-2.9555 2.27216,-2.95902 0.32581,-0.003 1.42822,3.65326 2.4498,8.12614 2.25472,9.87205 1.53016,13.06794 -3.27519,14.44609 -3.95337,1.13382 -7.99012,-1.08199 -8.95183,-4.91372 -0.71138,-2.83436 -1.65488,-2.99171 -8.14289,-1.35801 -4.38332,1.10373 -4.55868,1.28774 -3.98077,4.17728 0.99993,4.99968 4.43949,9.50954 8.95883,11.74658 5.335,2.64078 10.33672,2.67916 17.04357,0.13076 z m -64.13695,-5.41169 c 0.14116,-0.14116 -4.00846,-9.39708 -9.22137,-20.5687 -11.6447,-24.95538 -12.52659,-27.6101 -10.30056,-31.00745 0.89897,-1.37201 2.61036,-2.80428 3.8031,-3.18285 4.40489,-1.39805 7.05649,2.36008 17.88833,25.35331 5.72366,12.14989 10.59645,22.28047 10.8284,22.51244 0.33898,0.33898 10.38859,-3.51673 11.34834,-4.354 0.46014,-0.40142 -21.01714,-46.12726 -23.55151,-50.14197 -4.36413,-6.91323 -10.47816,-8.59911 -17.74352,-4.89261 -3.04263,1.55224 -4.61217,3.27499 -6.14898,6.74921 l -2.06354,4.66497 -1.39329,-2.65918 -1.39328,-2.65917 -5.29693,2.4541 c -2.91332,1.34976 -5.29693,2.84979 -5.29693,3.33342 0,0.48363 6.11472,14.08424 13.58828,30.22359 l 13.58827,29.34426 5.55427,-2.45636 c 3.05485,-1.351 5.66977,-2.57185 5.81092,-2.71301 z m 254.44642,-6.9993 c 7.34369,-16.89599 18.6936,-39.09892 20.47403,-40.05179 2.5858,-1.38388 7.30385,-1.42978 10.78836,-0.10498 2.52899,0.96153 2.76556,0.75124 5.24309,-4.66037 2.12573,-4.64321 2.34354,-5.82637 1.20534,-6.54734 -2.16983,-1.37441 -8.16598,-1.05197 -11.35371,0.61054 -3.88353,2.0254 -3.96269,1.96964 -2.15809,-1.52006 l 1.56638,-3.02906 -5.55283,-2.72336 c -3.05405,-1.49786 -5.77645,-2.49974 -6.04978,-2.22641 -0.45112,0.45111 -19.68755,41.44478 -25.42483,54.18139 l -2.38416,5.29278 4.78084,2.48887 c 2.62945,1.36888 5.28,2.51004 5.8901,2.53591 0.6101,0.0259 1.94896,-1.88489 2.97526,-4.24612 z m -33.37896,-9.94874 c 5.42784,-1.47581 9.18393,-5.24659 11.56478,-11.60998 2.58523,-6.90961 14.52088,-47.92375 14.05161,-48.28512 -0.55366,-0.42635 -11.97933,-3.52798 -11.97933,-3.25192 0,1.6258 -13.38276,45.64931 -14.58193,47.96824 -1.32541,2.56306 -2.2561,3.1567 -4.94891,3.1567 -5.00966,0 -7.2279,-2.11875 -7.1055,-6.78683 0.0569,-2.16739 2.89128,-13.52477 6.29877,-25.23862 3.40748,-11.71384 6.19544,-21.78808 6.19544,-22.3872 0,-1.01705 -10.85455,-4.77491 -11.60341,-4.01711 -0.18805,0.1903 -3.3789,10.80107 -7.09079,23.5795 -7.72052,26.57842 -8.52485,33.2937 -4.64111,38.74792 2.62473,3.68608 8.49024,6.97531 14.59117,8.18233 2.30915,0.45685 4.42573,0.87791 4.70352,0.93569 0.2778,0.0578 2.32336,-0.38935 4.54569,-0.9936 z M 408.14825,196.9431 c 1.21415,-11.94505 2.23709,-25.4613 2.2732,-30.0361 0.0607,-7.69486 -0.14239,-8.55 -2.71226,-11.41784 -4.83522,-5.39587 -13.60098,-5.78654 -19.83362,-0.88395 -3.23288,2.54299 -3.20918,4.8254 -0.24211,-23.32202 1.60448,-15.22108 1.96565,-21.9403 1.20729,-22.46043 -0.59514,-0.40818 -3.4259,-0.74911 -6.29058,-0.75761 l -5.20851,-0.0155 -0.61088,4.79822 c -0.53144,4.17427 -9.22967,91.58144 -9.92677,99.75257 -0.25558,2.99571 -0.18906,3.038 5.80238,3.6888 3.3335,0.3621 6.14751,0.57853 6.25337,0.48098 0.10585,-0.0976 1.34609,-11.29553 2.75609,-24.8844 2.05544,-19.8094 2.93818,-25.21112 4.45312,-27.25002 2.32808,-3.13324 6.74066,-3.81811 9.35518,-1.452 2.52489,2.285 2.51063,7.51236 -0.0893,32.74912 -1.11117,10.78565 -2.0203,20.1649 -2.0203,20.84275 0,1.61125 2.48083,2.23872 8.08086,2.04385 l 4.54531,-0.15817 2.20753,-21.71828 z m -80.84905,19.6722 c 0.32524,-0.84756 0.0565,-8.16919 -0.59731,-16.27029 -0.65375,-8.10109 -1.03091,-14.88699 -0.83813,-15.07977 0.19279,-0.19278 4.44682,6.56063 9.45343,15.00759 l 9.10291,15.35809 6.97648,-0.29111 c 3.83706,-0.16012 7.13846,-0.45312 7.33645,-0.65111 0.19799,-0.19799 -4.4727,-8.1055 -10.37932,-17.57226 l -10.73931,-17.21227 7.00153,-14.96658 7.00153,-14.96658 -5.38912,-0.30217 c -2.96401,-0.16619 -6.19646,0.13201 -7.18321,0.66266 -0.98675,0.53065 -4.52149,7.25787 -7.855,14.94938 -4.24006,9.78325 -6.13789,13.22587 -6.31713,11.45917 -0.14092,-1.38896 -1.39335,-17.03607 -2.78319,-34.77135 -1.38983,-17.73529 -2.7041,-32.4231 -2.92059,-32.63959 -0.21649,-0.21649 -3.05518,-0.0212 -6.30818,0.43396 -5.78904,0.81003 -5.90936,0.89174 -5.66913,3.85025 0.13499,1.66246 1.85324,24.38738 3.81834,50.49982 1.96509,26.11245 3.80716,48.95452 4.09348,50.76017 0.51403,3.24168 0.59032,3.283 6.06236,3.283 4.03536,0 5.70251,-0.4189 6.13311,-1.54101 z"
       id="path4364"
       inkscape:connector-curvature="0" />
    <path
       style="opacity:0;fill:#0000ff;fill-opacity:1;stroke:#cccccc;stroke-width:5.05076265;stroke-miterlimit:4;stroke-dasharray:none;stroke-opacity:1"
       d="M 341.29166,712.44829 C 267.315,706.16594 196.92497,676.88187 141.78653,629.449 49.871357,550.37894 5.3006393,431.85177 22.641361,312.60557 31.533159,251.45971 55.022842,196.65757 93.866362,146.43547 104.95632,132.09689 135.45206,101.33468 150.37283,89.435244 204.27078,46.4512 269.52848,20.322913 338.64524,14.053562 c 19.28247,-1.749048 61.1198,-0.713928 78.91294,1.952429 25.44603,3.813166 49.28217,9.604489 69.18873,16.810369 122.03736,44.175717 209.43771,149.96596 228.77859,276.9158 4.60563,30.23048 5.20935,67.94353 1.54178,96.31252 -5.74116,44.40854 -19.76648,87.92094 -40.44472,125.47641 -37.72565,68.51673 -98.0879,123.2265 -169.73072,153.83671 -32.72614,13.98261 -70.79514,23.53613 -106.50626,26.72803 -10.60779,0.94814 -49.39591,1.18605 -59.09392,0.36246 z m 64.64976,-80.46885 c 32.63026,-15.83667 34.32922,-16.79729 34.0253,-19.23872 -0.17593,-1.41336 -4.36038,-24.27481 -9.29876,-50.80322 -4.9384,-26.52842 -8.88557,-48.27846 -8.77149,-48.33342 2.89282,-1.39365 163.90166,-39.9161 168.56426,-40.33013 14.90166,-1.32324 33.31944,-7.77802 47.90806,-16.79007 16.92883,-10.4577 35.66676,-31.72591 43.84779,-49.76878 6.66217,-14.69309 11.09933,-33.01781 11.10918,-45.87892 l 0.004,-5.30747 -118.20701,0.25671 -118.20701,0.25671 -3.31491,9.64419 c -8.40049,24.43994 -25.45667,44.30531 -47.90467,55.79468 -7.96628,4.07732 -8.44691,4.19485 -11.11168,2.7172 -3.78405,-2.0983 -10.0137,-14.67195 -11.95114,-24.12163 -0.84385,-4.11583 -1.3002,-8.09331 -1.01413,-8.83884 0.36608,-0.95396 2.5997,-1.35549 7.54032,-1.35549 8.19943,0 10.21584,-0.58517 10.21584,-2.9647 0,-0.95612 -4.08606,-8.10251 -9.08013,-15.88089 l -9.08013,-14.14248 -10.64998,-2.5754 -10.64996,-2.57541 -9.47731,2.54565 -9.47729,2.54563 -8.31533,33.44386 c -4.57344,18.39411 -8.50075,33.78071 -8.72737,34.19244 -1.36797,2.48542 -20.67691,-9.56619 -30.75774,-19.19735 -11.95577,-11.42247 -20.41667,-24.6148 -25.53505,-39.8145 l -2.49076,-7.39666 -112.33311,-0.25694 -112.333123,-0.25695 0.59849,10.86355 c 2.404326,43.6424 31.204603,81.88563 72.885463,96.78295 11.50959,4.11368 24.10314,6.48929 34.78528,6.56178 6.92216,0.047 14.8602,2.11945 78.91212,20.60242 39.16866,11.3026 71.16554,20.93869 71.10416,21.41351 -0.0614,0.47483 -4.35657,23.69073 -9.54487,51.59089 -5.1883,27.90018 -9.22919,50.91731 -8.97977,51.14919 0.24942,0.23189 18.56679,8.61151 40.70528,18.62138 l 40.25179,18.19978 5.20507,-2.34279 c 2.86279,-1.28854 20.66041,-9.84383 39.55026,-19.01176 z m 182.55127,-336.799 c 19.73907,-19.96358 23.66227,-24.56659 25.13883,-29.49492 1.02375,-3.41697 0.91512,-4.46004 -0.81306,-7.80638 -2.35091,-4.55219 -8.41503,-8.36771 -13.33685,-8.39149 -3.39129,-0.0164 -3.41353,-0.0454 -1.58542,-2.06542 1.81807,-2.00894 1.76823,-2.13635 -2.56158,-6.5481 -4.24312,-4.32343 -4.49168,-4.4309 -6.359,-2.74942 -1.0688,0.96243 -11.51121,11.65771 -23.20534,23.76729 l -21.26206,22.01741 4.45158,4.53582 4.45157,4.53583 17.68384,-18.19426 c 18.67332,-19.21231 21.09869,-20.89003 25.77242,-17.82769 5.47152,3.58508 2.63104,9.43271 -11.08312,22.8165 -4.26974,4.16688 -10.98046,11.12253 -14.91273,15.457 l -7.14959,7.88086 3.8946,3.98843 c 2.14203,2.19364 4.17592,3.98844 4.51977,3.98844 0.34383,0 7.7041,-7.15946 16.35614,-15.9099 z m -442.86792,12.45762 c 3.77257,-1.98046 9.96481,-8.5933 11.25391,-12.01831 1.56999,-4.17135 1.30811,-9.48023 -0.67439,-13.67117 -0.95959,-2.02851 -10.61917,-12.92428 -21.46574,-24.21281 -10.84659,-11.28854 -23.88525,-24.9256 -28.97481,-30.30458 l -9.253758,-9.77996 -4.635844,4.50347 c -2.549714,2.47691 -4.635844,4.9114 -4.635844,5.40998 0,0.49858 11.433011,12.68223 25.406686,27.07476 13.97369,14.39253 26.47432,27.61533 27.7792,29.38399 4.5018,6.10186 2.06943,12.70484 -5.36777,14.57146 -1.29869,0.32595 -2.36125,0.86708 -2.36125,1.20251 0,0.94774 8.396,9.27263 9.35186,9.27263 0.4675,0 2.07748,-0.64438 3.57775,-1.43197 z m 44.30863,-37.54899 c 9.66839,-5.55794 11.51125,-15.99852 5.11002,-28.95052 -6.48578,-13.12307 -17.24943,-25.57596 -25.4841,-29.48357 -7.15669,-3.39608 -17.24759,-0.6087 -22.43964,6.19842 -7.33494,9.6166 -1.5483,27.85834 14.07875,44.38163 10.83689,11.45842 18.71778,13.61248 28.73497,7.85404 z m 345.78232,-1.91454 c 3.94408,-2.03957 7.76187,-6.96978 22.25475,-28.73926 l 12.39751,-18.62206 -2.83119,-2.25751 c -3.4429,-2.74527 -7.41233,-4.93203 -7.90953,-4.35734 -0.201,0.23232 -5.94215,8.83193 -12.7581,19.11023 -6.81596,10.27831 -13.32267,19.7106 -14.45936,20.96067 -3.77545,4.15202 -11.81606,1.84489 -11.81606,-3.39044 0,-3.53523 1.73132,-6.57282 15.44655,-27.10092 l 12.10434,-18.11698 -2.8312,-2.25751 c -3.42762,-2.73309 -7.41606,-4.93526 -7.89178,-4.35734 -3.16724,3.84772 -26.7617,39.99012 -28.16186,43.1388 -3.65951,8.22962 -2.13169,15.37871 4.47913,20.95909 7.21083,6.08687 16.03023,8.10566 21.9768,5.03057 z M 292.44747,251.52796 c 10.28611,-3.90841 13.968,-10.34675 12.02314,-21.02429 -0.57918,-3.17976 -5.03202,-21.14303 -9.89519,-39.91838 l -8.84215,-34.137 -2.52538,0.60539 c -9.68547,2.32187 -9.84191,2.40631 -9.33839,5.04031 0.58013,3.03479 0.64879,3.02629 -4.25351,0.52695 -5.85513,-2.98512 -13.2579,-0.59396 -16.40005,5.29738 -5.17606,9.70476 2.45174,44.20184 12.12312,54.82739 3.35714,3.68835 5.0851,4.76138 8.36051,5.19165 5.09209,0.66893 10.00112,-1.63419 12.37422,-5.8055 0.92388,-1.62394 1.94635,-2.9555 2.27216,-2.95902 0.32581,-0.003 1.42822,3.65326 2.4498,8.12614 2.25472,9.87205 1.53016,13.06794 -3.27519,14.44609 -3.95337,1.13382 -7.99012,-1.08199 -8.95183,-4.91372 -0.71138,-2.83436 -1.65488,-2.99171 -8.14289,-1.35801 -4.38332,1.10373 -4.55868,1.28774 -3.98077,4.17728 0.99993,4.99968 4.43949,9.50954 8.95883,11.74658 5.335,2.64078 10.33672,2.67916 17.04357,0.13076 z m -64.13695,-5.41169 c 0.14116,-0.14116 -4.00846,-9.39708 -9.22137,-20.5687 -11.6447,-24.95538 -12.52659,-27.6101 -10.30056,-31.00745 0.89897,-1.37201 2.61036,-2.80428 3.8031,-3.18285 4.40489,-1.39805 7.05649,2.36008 17.88833,25.35331 5.72366,12.14989 10.59645,22.28047 10.8284,22.51244 0.33898,0.33898 10.38859,-3.51673 11.34834,-4.354 0.46014,-0.40142 -21.01714,-46.12726 -23.55151,-50.14197 -4.36413,-6.91323 -10.47816,-8.59911 -17.74352,-4.89261 -3.04263,1.55224 -4.61217,3.27499 -6.14898,6.74921 l -2.06354,4.66497 -1.39329,-2.65918 -1.39328,-2.65917 -5.29693,2.4541 c -2.91332,1.34976 -5.29693,2.84979 -5.29693,3.33342 0,0.48363 6.11472,14.08424 13.58828,30.22359 l 13.58827,29.34426 5.55427,-2.45636 c 3.05485,-1.351 5.66977,-2.57185 5.81092,-2.71301 z m 254.44642,-6.9993 c 7.34369,-16.89599 18.6936,-39.09892 20.47403,-40.05179 2.5858,-1.38388 7.30385,-1.42978 10.78836,-0.10498 2.52899,0.96153 2.76556,0.75124 5.24309,-4.66037 2.12573,-4.64321 2.34354,-5.82637 1.20534,-6.54734 -2.16983,-1.37441 -8.16598,-1.05197 -11.35371,0.61054 -3.88353,2.0254 -3.96269,1.96964 -2.15809,-1.52006 l 1.56638,-3.02906 -5.55283,-2.72336 c -3.05405,-1.49786 -5.77645,-2.49974 -6.04978,-2.22641 -0.45112,0.45111 -19.68755,41.44478 -25.42483,54.18139 l -2.38416,5.29278 4.78084,2.48887 c 2.62945,1.36888 5.28,2.51004 5.8901,2.53591 0.6101,0.0259 1.94896,-1.88489 2.97526,-4.24612 z m -33.37896,-9.94874 c 5.42784,-1.47581 9.18393,-5.24659 11.56478,-11.60998 2.58523,-6.90961 14.52088,-47.92375 14.05161,-48.28512 -0.55366,-0.42635 -11.97933,-3.52798 -11.97933,-3.25192 0,1.6258 -13.38276,45.64931 -14.58193,47.96824 -1.32541,2.56306 -2.2561,3.1567 -4.94891,3.1567 -5.00966,0 -7.2279,-2.11875 -7.1055,-6.78683 0.0569,-2.16739 2.89128,-13.52477 6.29877,-25.23862 3.40748,-11.71384 6.19544,-21.78808 6.19544,-22.3872 0,-1.01705 -10.85455,-4.77491 -11.60341,-4.01711 -0.18805,0.1903 -3.3789,10.80107 -7.09079,23.5795 -7.72052,26.57842 -8.52485,33.2937 -4.64111,38.74792 2.62473,3.68608 8.49024,6.97531 14.59117,8.18233 2.30915,0.45685 4.42573,0.87791 4.70352,0.93569 0.2778,0.0578 2.32336,-0.38935 4.54569,-0.9936 z M 408.14825,196.9431 c 1.21415,-11.94505 2.23709,-25.4613 2.2732,-30.0361 0.0607,-7.69486 -0.14239,-8.55 -2.71226,-11.41784 -4.83522,-5.39587 -13.60098,-5.78654 -19.83362,-0.88395 -3.23288,2.54299 -3.20918,4.8254 -0.24211,-23.32202 1.60448,-15.22108 1.96565,-21.9403 1.20729,-22.46043 -0.59514,-0.40818 -3.4259,-0.74911 -6.29058,-0.75761 l -5.20851,-0.0155 -0.61088,4.79822 c -0.53144,4.17427 -9.22967,91.58144 -9.92677,99.75257 -0.25558,2.99571 -0.18906,3.038 5.80238,3.6888 3.3335,0.3621 6.14751,0.57853 6.25337,0.48098 0.10585,-0.0976 1.34609,-11.29553 2.75609,-24.8844 2.05544,-19.8094 2.93818,-25.21112 4.45312,-27.25002 2.32808,-3.13324 6.74066,-3.81811 9.35518,-1.452 2.52489,2.285 2.51063,7.51236 -0.0893,32.74912 -1.11117,10.78565 -2.0203,20.1649 -2.0203,20.84275 0,1.61125 2.48083,2.23872 8.08086,2.04385 l 4.54531,-0.15817 2.20753,-21.71828 z m -80.84905,19.6722 c 0.32524,-0.84756 0.0565,-8.16919 -0.59731,-16.27029 -0.65375,-8.10109 -1.03091,-14.88699 -0.83813,-15.07977 0.19279,-0.19278 4.44682,6.56063 9.45343,15.00759 l 9.10291,15.35809 6.97648,-0.29111 c 3.83706,-0.16012 7.13846,-0.45312 7.33645,-0.65111 0.19799,-0.19799 -4.4727,-8.1055 -10.37932,-17.57226 l -10.73931,-17.21227 7.00153,-14.96658 7.00153,-14.96658 -5.38912,-0.30217 c -2.96401,-0.16619 -6.19646,0.13201 -7.18321,0.66266 -0.98675,0.53065 -4.52149,7.25787 -7.855,14.94938 -4.24006,9.78325 -6.13789,13.22587 -6.31713,11.45917 -0.14092,-1.38896 -1.39335,-17.03607 -2.78319,-34.77135 -1.38983,-17.73529 -2.7041,-32.4231 -2.92059,-32.63959 -0.21649,-0.21649 -3.05518,-0.0212 -6.30818,0.43396 -5.78904,0.81003 -5.90936,0.89174 -5.66913,3.85025 0.13499,1.66246 1.85324,24.38738 3.81834,50.49982 1.96509,26.11245 3.80716,48.95452 4.09348,50.76017 0.51403,3.24168 0.59032,3.283 6.06236,3.283 4.03536,0 5.70251,-0.4189 6.13311,-1.54101 z"
       id="path4366"
       inkscape:connector-curvature="0" />
    <path
       style="opacity:0;fill:#0000ff;fill-opacity:1;stroke:#cccccc;stroke-width:5.05076265;stroke-miterlimit:4;stroke-dasharray:none;stroke-opacity:1"
       d="M 341.29166,712.44829 C 267.315,706.16594 196.92497,676.88187 141.78653,629.449 49.871357,550.37894 5.3006393,431.85177 22.641361,312.60557 31.533159,251.45971 55.022842,196.65757 93.866362,146.43547 104.95632,132.09689 135.45206,101.33468 150.37283,89.435244 204.27078,46.4512 269.52848,20.322913 338.64524,14.053562 c 19.28247,-1.749048 61.1198,-0.713928 78.91294,1.952429 25.44603,3.813166 49.28217,9.604489 69.18873,16.810369 122.03736,44.175717 209.43771,149.96596 228.77859,276.9158 4.60563,30.23048 5.20935,67.94353 1.54178,96.31252 -5.74116,44.40854 -19.76648,87.92094 -40.44472,125.47641 -37.72565,68.51673 -98.0879,123.2265 -169.73072,153.83671 -32.72614,13.98261 -70.79514,23.53613 -106.50626,26.72803 -10.60779,0.94814 -49.39591,1.18605 -59.09392,0.36246 z m 64.64976,-80.46885 c 32.63026,-15.83667 34.32922,-16.79729 34.0253,-19.23872 -0.17593,-1.41336 -4.36038,-24.27481 -9.29876,-50.80322 -4.9384,-26.52842 -8.88557,-48.27846 -8.77149,-48.33342 2.89282,-1.39365 163.90166,-39.9161 168.56426,-40.33013 14.90166,-1.32324 33.31944,-7.77802 47.90806,-16.79007 16.92883,-10.4577 35.66676,-31.72591 43.84779,-49.76878 6.66217,-14.69309 11.09933,-33.01781 11.10918,-45.87892 l 0.004,-5.30747 -118.20701,0.25671 -118.20701,0.25671 -3.31491,9.64419 c -8.40049,24.43994 -25.45667,44.30531 -47.90467,55.79468 -7.96628,4.07732 -8.44691,4.19485 -11.11168,2.7172 -3.78405,-2.0983 -10.0137,-14.67195 -11.95114,-24.12163 -0.84385,-4.11583 -1.3002,-8.09331 -1.01413,-8.83884 0.36608,-0.95396 2.5997,-1.35549 7.54032,-1.35549 8.19943,0 10.21584,-0.58517 10.21584,-2.9647 0,-0.95612 -4.08606,-8.10251 -9.08013,-15.88089 l -9.08013,-14.14248 -10.64998,-2.5754 -10.64996,-2.57541 -9.47731,2.54565 -9.47729,2.54563 -8.31533,33.44386 c -4.57344,18.39411 -8.50075,33.78071 -8.72737,34.19244 -1.36797,2.48542 -20.67691,-9.56619 -30.75774,-19.19735 -11.95577,-11.42247 -20.41667,-24.6148 -25.53505,-39.8145 l -2.49076,-7.39666 -112.33311,-0.25694 -112.333123,-0.25695 0.59849,10.86355 c 2.404326,43.6424 31.204603,81.88563 72.885463,96.78295 11.50959,4.11368 24.10314,6.48929 34.78528,6.56178 6.92216,0.047 14.8602,2.11945 78.91212,20.60242 39.16866,11.3026 71.16554,20.93869 71.10416,21.41351 -0.0614,0.47483 -4.35657,23.69073 -9.54487,51.59089 -5.1883,27.90018 -9.22919,50.91731 -8.97977,51.14919 0.24942,0.23189 18.56679,8.61151 40.70528,18.62138 l 40.25179,18.19978 5.20507,-2.34279 c 2.86279,-1.28854 20.66041,-9.84383 39.55026,-19.01176 z m 182.55127,-336.799 c 19.73907,-19.96358 23.66227,-24.56659 25.13883,-29.49492 1.02375,-3.41697 0.91512,-4.46004 -0.81306,-7.80638 -2.35091,-4.55219 -8.41503,-8.36771 -13.33685,-8.39149 -3.39129,-0.0164 -3.41353,-0.0454 -1.58542,-2.06542 1.81807,-2.00894 1.76823,-2.13635 -2.56158,-6.5481 -4.24312,-4.32343 -4.49168,-4.4309 -6.359,-2.74942 -1.0688,0.96243 -11.51121,11.65771 -23.20534,23.76729 l -21.26206,22.01741 4.45158,4.53582 4.45157,4.53583 17.68384,-18.19426 c 18.67332,-19.21231 21.09869,-20.89003 25.77242,-17.82769 5.47152,3.58508 2.63104,9.43271 -11.08312,22.8165 -4.26974,4.16688 -10.98046,11.12253 -14.91273,15.457 l -7.14959,7.88086 3.8946,3.98843 c 2.14203,2.19364 4.17592,3.98844 4.51977,3.98844 0.34383,0 7.7041,-7.15946 16.35614,-15.9099 z m -442.86792,12.45762 c 3.77257,-1.98046 9.96481,-8.5933 11.25391,-12.01831 1.56999,-4.17135 1.30811,-9.48023 -0.67439,-13.67117 -0.95959,-2.02851 -10.61917,-12.92428 -21.46574,-24.21281 -10.84659,-11.28854 -23.88525,-24.9256 -28.97481,-30.30458 l -9.253758,-9.77996 -4.635844,4.50347 c -2.549714,2.47691 -4.635844,4.9114 -4.635844,5.40998 0,0.49858 11.433011,12.68223 25.406686,27.07476 13.97369,14.39253 26.47432,27.61533 27.7792,29.38399 4.5018,6.10186 2.06943,12.70484 -5.36777,14.57146 -1.29869,0.32595 -2.36125,0.86708 -2.36125,1.20251 0,0.94774 8.396,9.27263 9.35186,9.27263 0.4675,0 2.07748,-0.64438 3.57775,-1.43197 z m 44.30863,-37.54899 c 9.66839,-5.55794 11.51125,-15.99852 5.11002,-28.95052 -6.48578,-13.12307 -17.24943,-25.57596 -25.4841,-29.48357 -7.15669,-3.39608 -17.24759,-0.6087 -22.43964,6.19842 -7.33494,9.6166 -1.5483,27.85834 14.07875,44.38163 10.83689,11.45842 18.71778,13.61248 28.73497,7.85404 z m 345.78232,-1.91454 c 3.94408,-2.03957 7.76187,-6.96978 22.25475,-28.73926 l 12.39751,-18.62206 -2.83119,-2.25751 c -3.4429,-2.74527 -7.41233,-4.93203 -7.90953,-4.35734 -0.201,0.23232 -5.94215,8.83193 -12.7581,19.11023 -6.81596,10.27831 -13.32267,19.7106 -14.45936,20.96067 -3.77545,4.15202 -11.81606,1.84489 -11.81606,-3.39044 0,-3.53523 1.73132,-6.57282 15.44655,-27.10092 l 12.10434,-18.11698 -2.8312,-2.25751 c -3.42762,-2.73309 -7.41606,-4.93526 -7.89178,-4.35734 -3.16724,3.84772 -26.7617,39.99012 -28.16186,43.1388 -3.65951,8.22962 -2.13169,15.37871 4.47913,20.95909 7.21083,6.08687 16.03023,8.10566 21.9768,5.03057 z M 292.44747,251.52796 c 10.28611,-3.90841 13.968,-10.34675 12.02314,-21.02429 -0.57918,-3.17976 -5.03202,-21.14303 -9.89519,-39.91838 l -8.84215,-34.137 -2.52538,0.60539 c -9.68547,2.32187 -9.84191,2.40631 -9.33839,5.04031 0.58013,3.03479 0.64879,3.02629 -4.25351,0.52695 -5.85513,-2.98512 -13.2579,-0.59396 -16.40005,5.29738 -5.17606,9.70476 2.45174,44.20184 12.12312,54.82739 3.35714,3.68835 5.0851,4.76138 8.36051,5.19165 5.09209,0.66893 10.00112,-1.63419 12.37422,-5.8055 0.92388,-1.62394 1.94635,-2.9555 2.27216,-2.95902 0.32581,-0.003 1.42822,3.65326 2.4498,8.12614 2.25472,9.87205 1.53016,13.06794 -3.27519,14.44609 -3.95337,1.13382 -7.99012,-1.08199 -8.95183,-4.91372 -0.71138,-2.83436 -1.65488,-2.99171 -8.14289,-1.35801 -4.38332,1.10373 -4.55868,1.28774 -3.98077,4.17728 0.99993,4.99968 4.43949,9.50954 8.95883,11.74658 5.335,2.64078 10.33672,2.67916 17.04357,0.13076 z m -64.13695,-5.41169 c 0.14116,-0.14116 -4.00846,-9.39708 -9.22137,-20.5687 -11.6447,-24.95538 -12.52659,-27.6101 -10.30056,-31.00745 0.89897,-1.37201 2.61036,-2.80428 3.8031,-3.18285 4.40489,-1.39805 7.05649,2.36008 17.88833,25.35331 5.72366,12.14989 10.59645,22.28047 10.8284,22.51244 0.33898,0.33898 10.38859,-3.51673 11.34834,-4.354 0.46014,-0.40142 -21.01714,-46.12726 -23.55151,-50.14197 -4.36413,-6.91323 -10.47816,-8.59911 -17.74352,-4.89261 -3.04263,1.55224 -4.61217,3.27499 -6.14898,6.74921 l -2.06354,4.66497 -1.39329,-2.65918 -1.39328,-2.65917 -5.29693,2.4541 c -2.91332,1.34976 -5.29693,2.84979 -5.29693,3.33342 0,0.48363 6.11472,14.08424 13.58828,30.22359 l 13.58827,29.34426 5.55427,-2.45636 c 3.05485,-1.351 5.66977,-2.57185 5.81092,-2.71301 z m 254.44642,-6.9993 c 7.34369,-16.89599 18.6936,-39.09892 20.47403,-40.05179 2.5858,-1.38388 7.30385,-1.42978 10.78836,-0.10498 2.52899,0.96153 2.76556,0.75124 5.24309,-4.66037 2.12573,-4.64321 2.34354,-5.82637 1.20534,-6.54734 -2.16983,-1.37441 -8.16598,-1.05197 -11.35371,0.61054 -3.88353,2.0254 -3.96269,1.96964 -2.15809,-1.52006 l 1.56638,-3.02906 -5.55283,-2.72336 c -3.05405,-1.49786 -5.77645,-2.49974 -6.04978,-2.22641 -0.45112,0.45111 -19.68755,41.44478 -25.42483,54.18139 l -2.38416,5.29278 4.78084,2.48887 c 2.62945,1.36888 5.28,2.51004 5.8901,2.53591 0.6101,0.0259 1.94896,-1.88489 2.97526,-4.24612 z m -33.37896,-9.94874 c 5.42784,-1.47581 9.18393,-5.24659 11.56478,-11.60998 2.58523,-6.90961 14.52088,-47.92375 14.05161,-48.28512 -0.55366,-0.42635 -11.97933,-3.52798 -11.97933,-3.25192 0,1.6258 -13.38276,45.64931 -14.58193,47.96824 -1.32541,2.56306 -2.2561,3.1567 -4.94891,3.1567 -5.00966,0 -7.2279,-2.11875 -7.1055,-6.78683 0.0569,-2.16739 2.89128,-13.52477 6.29877,-25.23862 3.40748,-11.71384 6.19544,-21.78808 6.19544,-22.3872 0,-1.01705 -10.85455,-4.77491 -11.60341,-4.01711 -0.18805,0.1903 -3.3789,10.80107 -7.09079,23.5795 -7.72052,26.57842 -8.52485,33.2937 -4.64111,38.74792 2.62473,3.68608 8.49024,6.97531 14.59117,8.18233 2.30915,0.45685 4.42573,0.87791 4.70352,0.93569 0.2778,0.0578 2.32336,-0.38935 4.54569,-0.9936 z M 408.14825,196.9431 c 1.21415,-11.94505 2.23709,-25.4613 2.2732,-30.0361 0.0607,-7.69486 -0.14239,-8.55 -2.71226,-11.41784 -4.83522,-5.39587 -13.60098,-5.78654 -19.83362,-0.88395 -3.23288,2.54299 -3.20918,4.8254 -0.24211,-23.32202 1.60448,-15.22108 1.96565,-21.9403 1.20729,-22.46043 -0.59514,-0.40818 -3.4259,-0.74911 -6.29058,-0.75761 l -5.20851,-0.0155 -0.61088,4.79822 c -0.53144,4.17427 -9.22967,91.58144 -9.92677,99.75257 -0.25558,2.99571 -0.18906,3.038 5.80238,3.6888 3.3335,0.3621 6.14751,0.57853 6.25337,0.48098 0.10585,-0.0976 1.34609,-11.29553 2.75609,-24.8844 2.05544,-19.8094 2.93818,-25.21112 4.45312,-27.25002 2.32808,-3.13324 6.74066,-3.81811 9.35518,-1.452 2.52489,2.285 2.51063,7.51236 -0.0893,32.74912 -1.11117,10.78565 -2.0203,20.1649 -2.0203,20.84275 0,1.61125 2.48083,2.23872 8.08086,2.04385 l 4.54531,-0.15817 2.20753,-21.71828 z m -80.84905,19.6722 c 0.32524,-0.84756 0.0565,-8.16919 -0.59731,-16.27029 -0.65375,-8.10109 -1.03091,-14.88699 -0.83813,-15.07977 0.19279,-0.19278 4.44682,6.56063 9.45343,15.00759 l 9.10291,15.35809 6.97648,-0.29111 c 3.83706,-0.16012 7.13846,-0.45312 7.33645,-0.65111 0.19799,-0.19799 -4.4727,-8.1055 -10.37932,-17.57226 l -10.73931,-17.21227 7.00153,-14.96658 7.00153,-14.96658 -5.38912,-0.30217 c -2.96401,-0.16619 -6.19646,0.13201 -7.18321,0.66266 -0.98675,0.53065 -4.52149,7.25787 -7.855,14.94938 -4.24006,9.78325 -6.13789,13.22587 -6.31713,11.45917 -0.14092,-1.38896 -1.39335,-17.03607 -2.78319,-34.77135 -1.38983,-17.73529 -2.7041,-32.4231 -2.92059,-32.63959 -0.21649,-0.21649 -3.05518,-0.0212 -6.30818,0.43396 -5.78904,0.81003 -5.90936,0.89174 -5.66913,3.85025 0.13499,1.66246 1.85324,24.38738 3.81834,50.49982 1.96509,26.11245 3.80716,48.95452 4.09348,50.76017 0.51403,3.24168 0.59032,3.283 6.06236,3.283 4.03536,0 5.70251,-0.4189 6.13311,-1.54101 z"
       id="path4368"
       inkscape:connector-curvature="0" />
    <path
       style="opacity:0;fill:#0000ff;fill-opacity:1;stroke:#cccccc;stroke-width:5.05076265;stroke-miterlimit:4;stroke-dasharray:none;stroke-opacity:1"
       d="M 341.29166,712.44829 C 267.315,706.16594 196.92497,676.88187 141.78653,629.449 49.871357,550.37894 5.3006393,431.85177 22.641361,312.60557 31.533159,251.45971 55.022842,196.65757 93.866362,146.43547 104.95632,132.09689 135.45206,101.33468 150.37283,89.435244 204.27078,46.4512 269.52848,20.322913 338.64524,14.053562 c 19.28247,-1.749048 61.1198,-0.713928 78.91294,1.952429 25.44603,3.813166 49.28217,9.604489 69.18873,16.810369 122.03736,44.175717 209.43771,149.96596 228.77859,276.9158 4.60563,30.23048 5.20935,67.94353 1.54178,96.31252 -5.74116,44.40854 -19.76648,87.92094 -40.44472,125.47641 -37.72565,68.51673 -98.0879,123.2265 -169.73072,153.83671 -32.72614,13.98261 -70.79514,23.53613 -106.50626,26.72803 -10.60779,0.94814 -49.39591,1.18605 -59.09392,0.36246 z m 64.64976,-80.46885 c 32.63026,-15.83667 34.32922,-16.79729 34.0253,-19.23872 -0.17593,-1.41336 -4.36038,-24.27481 -9.29876,-50.80322 -4.9384,-26.52842 -8.88557,-48.27846 -8.77149,-48.33342 2.89282,-1.39365 163.90166,-39.9161 168.56426,-40.33013 14.90166,-1.32324 33.31944,-7.77802 47.90806,-16.79007 16.92883,-10.4577 35.66676,-31.72591 43.84779,-49.76878 6.66217,-14.69309 11.09933,-33.01781 11.10918,-45.87892 l 0.004,-5.30747 -118.20701,0.25671 -118.20701,0.25671 -3.31491,9.64419 c -8.40049,24.43994 -25.45667,44.30531 -47.90467,55.79468 -7.96628,4.07732 -8.44691,4.19485 -11.11168,2.7172 -3.78405,-2.0983 -10.0137,-14.67195 -11.95114,-24.12163 -0.84385,-4.11583 -1.3002,-8.09331 -1.01413,-8.83884 0.36608,-0.95396 2.5997,-1.35549 7.54032,-1.35549 8.19943,0 10.21584,-0.58517 10.21584,-2.9647 0,-0.95612 -4.08606,-8.10251 -9.08013,-15.88089 l -9.08013,-14.14248 -10.64998,-2.5754 -10.64996,-2.57541 -9.47731,2.54565 -9.47729,2.54563 -8.31533,33.44386 c -4.57344,18.39411 -8.50075,33.78071 -8.72737,34.19244 -1.36797,2.48542 -20.67691,-9.56619 -30.75774,-19.19735 -11.95577,-11.42247 -20.41667,-24.6148 -25.53505,-39.8145 l -2.49076,-7.39666 -112.33311,-0.25694 -112.333123,-0.25695 0.59849,10.86355 c 2.404326,43.6424 31.204603,81.88563 72.885463,96.78295 11.50959,4.11368 24.10314,6.48929 34.78528,6.56178 6.92216,0.047 14.8602,2.11945 78.91212,20.60242 39.16866,11.3026 71.16554,20.93869 71.10416,21.41351 -0.0614,0.47483 -4.35657,23.69073 -9.54487,51.59089 -5.1883,27.90018 -9.22919,50.91731 -8.97977,51.14919 0.24942,0.23189 18.56679,8.61151 40.70528,18.62138 l 40.25179,18.19978 5.20507,-2.34279 c 2.86279,-1.28854 20.66041,-9.84383 39.55026,-19.01176 z m 182.55127,-336.799 c 19.73907,-19.96358 23.66227,-24.56659 25.13883,-29.49492 1.02375,-3.41697 0.91512,-4.46004 -0.81306,-7.80638 -2.35091,-4.55219 -8.41503,-8.36771 -13.33685,-8.39149 -3.39129,-0.0164 -3.41353,-0.0454 -1.58542,-2.06542 1.81807,-2.00894 1.76823,-2.13635 -2.56158,-6.5481 -4.24312,-4.32343 -4.49168,-4.4309 -6.359,-2.74942 -1.0688,0.96243 -11.51121,11.65771 -23.20534,23.76729 l -21.26206,22.01741 4.45158,4.53582 4.45157,4.53583 17.68384,-18.19426 c 18.67332,-19.21231 21.09869,-20.89003 25.77242,-17.82769 5.47152,3.58508 2.63104,9.43271 -11.08312,22.8165 -4.26974,4.16688 -10.98046,11.12253 -14.91273,15.457 l -7.14959,7.88086 3.8946,3.98843 c 2.14203,2.19364 4.17592,3.98844 4.51977,3.98844 0.34383,0 7.7041,-7.15946 16.35614,-15.9099 z m -442.86792,12.45762 c 3.77257,-1.98046 9.96481,-8.5933 11.25391,-12.01831 1.56999,-4.17135 1.30811,-9.48023 -0.67439,-13.67117 -0.95959,-2.02851 -10.61917,-12.92428 -21.46574,-24.21281 -10.84659,-11.28854 -23.88525,-24.9256 -28.97481,-30.30458 l -9.253758,-9.77996 -4.635844,4.50347 c -2.549714,2.47691 -4.635844,4.9114 -4.635844,5.40998 0,0.49858 11.433011,12.68223 25.406686,27.07476 13.97369,14.39253 26.47432,27.61533 27.7792,29.38399 4.5018,6.10186 2.06943,12.70484 -5.36777,14.57146 -1.29869,0.32595 -2.36125,0.86708 -2.36125,1.20251 0,0.94774 8.396,9.27263 9.35186,9.27263 0.4675,0 2.07748,-0.64438 3.57775,-1.43197 z m 44.30863,-37.54899 c 9.66839,-5.55794 11.51125,-15.99852 5.11002,-28.95052 -6.48578,-13.12307 -17.24943,-25.57596 -25.4841,-29.48357 -7.15669,-3.39608 -17.24759,-0.6087 -22.43964,6.19842 -7.33494,9.6166 -1.5483,27.85834 14.07875,44.38163 10.83689,11.45842 18.71778,13.61248 28.73497,7.85404 z m 345.78232,-1.91454 c 3.94408,-2.03957 7.76187,-6.96978 22.25475,-28.73926 l 12.39751,-18.62206 -2.83119,-2.25751 c -3.4429,-2.74527 -7.41233,-4.93203 -7.90953,-4.35734 -0.201,0.23232 -5.94215,8.83193 -12.7581,19.11023 -6.81596,10.27831 -13.32267,19.7106 -14.45936,20.96067 -3.77545,4.15202 -11.81606,1.84489 -11.81606,-3.39044 0,-3.53523 1.73132,-6.57282 15.44655,-27.10092 l 12.10434,-18.11698 -2.8312,-2.25751 c -3.42762,-2.73309 -7.41606,-4.93526 -7.89178,-4.35734 -3.16724,3.84772 -26.7617,39.99012 -28.16186,43.1388 -3.65951,8.22962 -2.13169,15.37871 4.47913,20.95909 7.21083,6.08687 16.03023,8.10566 21.9768,5.03057 z M 292.44747,251.52796 c 10.28611,-3.90841 13.968,-10.34675 12.02314,-21.02429 -0.57918,-3.17976 -5.03202,-21.14303 -9.89519,-39.91838 l -8.84215,-34.137 -2.52538,0.60539 c -9.68547,2.32187 -9.84191,2.40631 -9.33839,5.04031 0.58013,3.03479 0.64879,3.02629 -4.25351,0.52695 -5.85513,-2.98512 -13.2579,-0.59396 -16.40005,5.29738 -5.17606,9.70476 2.45174,44.20184 12.12312,54.82739 3.35714,3.68835 5.0851,4.76138 8.36051,5.19165 5.09209,0.66893 10.00112,-1.63419 12.37422,-5.8055 0.92388,-1.62394 1.94635,-2.9555 2.27216,-2.95902 0.32581,-0.003 1.42822,3.65326 2.4498,8.12614 2.25472,9.87205 1.53016,13.06794 -3.27519,14.44609 -3.95337,1.13382 -7.99012,-1.08199 -8.95183,-4.91372 -0.71138,-2.83436 -1.65488,-2.99171 -8.14289,-1.35801 -4.38332,1.10373 -4.55868,1.28774 -3.98077,4.17728 0.99993,4.99968 4.43949,9.50954 8.95883,11.74658 5.335,2.64078 10.33672,2.67916 17.04357,0.13076 z m -64.13695,-5.41169 c 0.14116,-0.14116 -4.00846,-9.39708 -9.22137,-20.5687 -11.6447,-24.95538 -12.52659,-27.6101 -10.30056,-31.00745 0.89897,-1.37201 2.61036,-2.80428 3.8031,-3.18285 4.40489,-1.39805 7.05649,2.36008 17.88833,25.35331 5.72366,12.14989 10.59645,22.28047 10.8284,22.51244 0.33898,0.33898 10.38859,-3.51673 11.34834,-4.354 0.46014,-0.40142 -21.01714,-46.12726 -23.55151,-50.14197 -4.36413,-6.91323 -10.47816,-8.59911 -17.74352,-4.89261 -3.04263,1.55224 -4.61217,3.27499 -6.14898,6.74921 l -2.06354,4.66497 -1.39329,-2.65918 -1.39328,-2.65917 -5.29693,2.4541 c -2.91332,1.34976 -5.29693,2.84979 -5.29693,3.33342 0,0.48363 6.11472,14.08424 13.58828,30.22359 l 13.58827,29.34426 5.55427,-2.45636 c 3.05485,-1.351 5.66977,-2.57185 5.81092,-2.71301 z m 254.44642,-6.9993 c 7.34369,-16.89599 18.6936,-39.09892 20.47403,-40.05179 2.5858,-1.38388 7.30385,-1.42978 10.78836,-0.10498 2.52899,0.96153 2.76556,0.75124 5.24309,-4.66037 2.12573,-4.64321 2.34354,-5.82637 1.20534,-6.54734 -2.16983,-1.37441 -8.16598,-1.05197 -11.35371,0.61054 -3.88353,2.0254 -3.96269,1.96964 -2.15809,-1.52006 l 1.56638,-3.02906 -5.55283,-2.72336 c -3.05405,-1.49786 -5.77645,-2.49974 -6.04978,-2.22641 -0.45112,0.45111 -19.68755,41.44478 -25.42483,54.18139 l -2.38416,5.29278 4.78084,2.48887 c 2.62945,1.36888 5.28,2.51004 5.8901,2.53591 0.6101,0.0259 1.94896,-1.88489 2.97526,-4.24612 z m -33.37896,-9.94874 c 5.42784,-1.47581 9.18393,-5.24659 11.56478,-11.60998 2.58523,-6.90961 14.52088,-47.92375 14.05161,-48.28512 -0.55366,-0.42635 -11.97933,-3.52798 -11.97933,-3.25192 0,1.6258 -13.38276,45.64931 -14.58193,47.96824 -1.32541,2.56306 -2.2561,3.1567 -4.94891,3.1567 -5.00966,0 -7.2279,-2.11875 -7.1055,-6.78683 0.0569,-2.16739 2.89128,-13.52477 6.29877,-25.23862 3.40748,-11.71384 6.19544,-21.78808 6.19544,-22.3872 0,-1.01705 -10.85455,-4.77491 -11.60341,-4.01711 -0.18805,0.1903 -3.3789,10.80107 -7.09079,23.5795 -7.72052,26.57842 -8.52485,33.2937 -4.64111,38.74792 2.62473,3.68608 8.49024,6.97531 14.59117,8.18233 2.30915,0.45685 4.42573,0.87791 4.70352,0.93569 0.2778,0.0578 2.32336,-0.38935 4.54569,-0.9936 z M 408.14825,196.9431 c 1.21415,-11.94505 2.23709,-25.4613 2.2732,-30.0361 0.0607,-7.69486 -0.14239,-8.55 -2.71226,-11.41784 -4.83522,-5.39587 -13.60098,-5.78654 -19.83362,-0.88395 -3.23288,2.54299 -3.20918,4.8254 -0.24211,-23.32202 1.60448,-15.22108 1.96565,-21.9403 1.20729,-22.46043 -0.59514,-0.40818 -3.4259,-0.74911 -6.29058,-0.75761 l -5.20851,-0.0155 -0.61088,4.79822 c -0.53144,4.17427 -9.22967,91.58144 -9.92677,99.75257 -0.25558,2.99571 -0.18906,3.038 5.80238,3.6888 3.3335,0.3621 6.14751,0.57853 6.25337,0.48098 0.10585,-0.0976 1.34609,-11.29553 2.75609,-24.8844 2.05544,-19.8094 2.93818,-25.21112 4.45312,-27.25002 2.32808,-3.13324 6.74066,-3.81811 9.35518,-1.452 2.52489,2.285 2.51063,7.51236 -0.0893,32.74912 -1.11117,10.78565 -2.0203,20.1649 -2.0203,20.84275 0,1.61125 2.48083,2.23872 8.08086,2.04385 l 4.54531,-0.15817 2.20753,-21.71828 z m -80.84905,19.6722 c 0.32524,-0.84756 0.0565,-8.16919 -0.59731,-16.27029 -0.65375,-8.10109 -1.03091,-14.88699 -0.83813,-15.07977 0.19279,-0.19278 4.44682,6.56063 9.45343,15.00759 l 9.10291,15.35809 6.97648,-0.29111 c 3.83706,-0.16012 7.13846,-0.45312 7.33645,-0.65111 0.19799,-0.19799 -4.4727,-8.1055 -10.37932,-17.57226 l -10.73931,-17.21227 7.00153,-14.96658 7.00153,-14.96658 -5.38912,-0.30217 c -2.96401,-0.16619 -6.19646,0.13201 -7.18321,0.66266 -0.98675,0.53065 -4.52149,7.25787 -7.855,14.94938 -4.24006,9.78325 -6.13789,13.22587 -6.31713,11.45917 -0.14092,-1.38896 -1.39335,-17.03607 -2.78319,-34.77135 -1.38983,-17.73529 -2.7041,-32.4231 -2.92059,-32.63959 -0.21649,-0.21649 -3.05518,-0.0212 -6.30818,0.43396 -5.78904,0.81003 -5.90936,0.89174 -5.66913,3.85025 0.13499,1.66246 1.85324,24.38738 3.81834,50.49982 1.96509,26.11245 3.80716,48.95452 4.09348,50.76017 0.51403,3.24168 0.59032,3.283 6.06236,3.283 4.03536,0 5.70251,-0.4189 6.13311,-1.54101 z"
       id="path4370"
       inkscape:connector-curvature="0" />
    <path
       style="opacity:0;fill:#0000ff;fill-opacity:1;stroke:#cccccc;stroke-width:5.05076265;stroke-miterlimit:4;stroke-dasharray:none;stroke-opacity:1"
       d="M 341.29166,712.44829 C 267.315,706.16594 196.92497,676.88187 141.78653,629.449 49.871357,550.37894 5.3006393,431.85177 22.641361,312.60557 31.533159,251.45971 55.022842,196.65757 93.866362,146.43547 104.95632,132.09689 135.45206,101.33468 150.37283,89.435244 204.27078,46.4512 269.52848,20.322913 338.64524,14.053562 c 19.28247,-1.749048 61.1198,-0.713928 78.91294,1.952429 25.44603,3.813166 49.28217,9.604489 69.18873,16.810369 122.03736,44.175717 209.43771,149.96596 228.77859,276.9158 4.60563,30.23048 5.20935,67.94353 1.54178,96.31252 -5.74116,44.40854 -19.76648,87.92094 -40.44472,125.47641 -37.72565,68.51673 -98.0879,123.2265 -169.73072,153.83671 -32.72614,13.98261 -70.79514,23.53613 -106.50626,26.72803 -10.60779,0.94814 -49.39591,1.18605 -59.09392,0.36246 z m 64.64976,-80.46885 c 32.63026,-15.83667 34.32922,-16.79729 34.0253,-19.23872 -0.17593,-1.41336 -4.36038,-24.27481 -9.29876,-50.80322 -4.9384,-26.52842 -8.88557,-48.27846 -8.77149,-48.33342 2.89282,-1.39365 163.90166,-39.9161 168.56426,-40.33013 14.90166,-1.32324 33.31944,-7.77802 47.90806,-16.79007 16.92883,-10.4577 35.66676,-31.72591 43.84779,-49.76878 6.66217,-14.69309 11.09933,-33.01781 11.10918,-45.87892 l 0.004,-5.30747 -118.20701,0.25671 -118.20701,0.25671 -3.31491,9.64419 c -8.40049,24.43994 -25.45667,44.30531 -47.90467,55.79468 -7.96628,4.07732 -8.44691,4.19485 -11.11168,2.7172 -3.78405,-2.0983 -10.0137,-14.67195 -11.95114,-24.12163 -0.84385,-4.11583 -1.3002,-8.09331 -1.01413,-8.83884 0.36608,-0.95396 2.5997,-1.35549 7.54032,-1.35549 8.19943,0 10.21584,-0.58517 10.21584,-2.9647 0,-0.95612 -4.08606,-8.10251 -9.08013,-15.88089 l -9.08013,-14.14248 -10.64998,-2.5754 -10.64996,-2.57541 -9.47731,2.54565 -9.47729,2.54563 -8.31533,33.44386 c -4.57344,18.39411 -8.50075,33.78071 -8.72737,34.19244 -1.36797,2.48542 -20.67691,-9.56619 -30.75774,-19.19735 -11.95577,-11.42247 -20.41667,-24.6148 -25.53505,-39.8145 l -2.49076,-7.39666 -112.33311,-0.25694 -112.333123,-0.25695 0.59849,10.86355 c 2.404326,43.6424 31.204603,81.88563 72.885463,96.78295 11.50959,4.11368 24.10314,6.48929 34.78528,6.56178 6.92216,0.047 14.8602,2.11945 78.91212,20.60242 39.16866,11.3026 71.16554,20.93869 71.10416,21.41351 -0.0614,0.47483 -4.35657,23.69073 -9.54487,51.59089 -5.1883,27.90018 -9.22919,50.91731 -8.97977,51.14919 0.24942,0.23189 18.56679,8.61151 40.70528,18.62138 l 40.25179,18.19978 5.20507,-2.34279 c 2.86279,-1.28854 20.66041,-9.84383 39.55026,-19.01176 z m 182.55127,-336.799 c 19.73907,-19.96358 23.66227,-24.56659 25.13883,-29.49492 1.02375,-3.41697 0.91512,-4.46004 -0.81306,-7.80638 -2.35091,-4.55219 -8.41503,-8.36771 -13.33685,-8.39149 -3.39129,-0.0164 -3.41353,-0.0454 -1.58542,-2.06542 1.81807,-2.00894 1.76823,-2.13635 -2.56158,-6.5481 -4.24312,-4.32343 -4.49168,-4.4309 -6.359,-2.74942 -1.0688,0.96243 -11.51121,11.65771 -23.20534,23.76729 l -21.26206,22.01741 4.45158,4.53582 4.45157,4.53583 17.68384,-18.19426 c 18.67332,-19.21231 21.09869,-20.89003 25.77242,-17.82769 5.47152,3.58508 2.63104,9.43271 -11.08312,22.8165 -4.26974,4.16688 -10.98046,11.12253 -14.91273,15.457 l -7.14959,7.88086 3.8946,3.98843 c 2.14203,2.19364 4.17592,3.98844 4.51977,3.98844 0.34383,0 7.7041,-7.15946 16.35614,-15.9099 z m -442.86792,12.45762 c 3.77257,-1.98046 9.96481,-8.5933 11.25391,-12.01831 1.56999,-4.17135 1.30811,-9.48023 -0.67439,-13.67117 -0.95959,-2.02851 -10.61917,-12.92428 -21.46574,-24.21281 -10.84659,-11.28854 -23.88525,-24.9256 -28.97481,-30.30458 l -9.253758,-9.77996 -4.635844,4.50347 c -2.549714,2.47691 -4.635844,4.9114 -4.635844,5.40998 0,0.49858 11.433011,12.68223 25.406686,27.07476 13.97369,14.39253 26.47432,27.61533 27.7792,29.38399 4.5018,6.10186 2.06943,12.70484 -5.36777,14.57146 -1.29869,0.32595 -2.36125,0.86708 -2.36125,1.20251 0,0.94774 8.396,9.27263 9.35186,9.27263 0.4675,0 2.07748,-0.64438 3.57775,-1.43197 z m 44.30863,-37.54899 c 9.66839,-5.55794 11.51125,-15.99852 5.11002,-28.95052 -6.48578,-13.12307 -17.24943,-25.57596 -25.4841,-29.48357 -7.15669,-3.39608 -17.24759,-0.6087 -22.43964,6.19842 -7.33494,9.6166 -1.5483,27.85834 14.07875,44.38163 10.83689,11.45842 18.71778,13.61248 28.73497,7.85404 z m 345.78232,-1.91454 c 3.94408,-2.03957 7.76187,-6.96978 22.25475,-28.73926 l 12.39751,-18.62206 -2.83119,-2.25751 c -3.4429,-2.74527 -7.41233,-4.93203 -7.90953,-4.35734 -0.201,0.23232 -5.94215,8.83193 -12.7581,19.11023 -6.81596,10.27831 -13.32267,19.7106 -14.45936,20.96067 -3.77545,4.15202 -11.81606,1.84489 -11.81606,-3.39044 0,-3.53523 1.73132,-6.57282 15.44655,-27.10092 l 12.10434,-18.11698 -2.8312,-2.25751 c -3.42762,-2.73309 -7.41606,-4.93526 -7.89178,-4.35734 -3.16724,3.84772 -26.7617,39.99012 -28.16186,43.1388 -3.65951,8.22962 -2.13169,15.37871 4.47913,20.95909 7.21083,6.08687 16.03023,8.10566 21.9768,5.03057 z M 292.44747,251.52796 c 10.28611,-3.90841 13.968,-10.34675 12.02314,-21.02429 -0.57918,-3.17976 -5.03202,-21.14303 -9.89519,-39.91838 l -8.84215,-34.137 -2.52538,0.60539 c -9.68547,2.32187 -9.84191,2.40631 -9.33839,5.04031 0.58013,3.03479 0.64879,3.02629 -4.25351,0.52695 -5.85513,-2.98512 -13.2579,-0.59396 -16.40005,5.29738 -5.17606,9.70476 2.45174,44.20184 12.12312,54.82739 3.35714,3.68835 5.0851,4.76138 8.36051,5.19165 5.09209,0.66893 10.00112,-1.63419 12.37422,-5.8055 0.92388,-1.62394 1.94635,-2.9555 2.27216,-2.95902 0.32581,-0.003 1.42822,3.65326 2.4498,8.12614 2.25472,9.87205 1.53016,13.06794 -3.27519,14.44609 -3.95337,1.13382 -7.99012,-1.08199 -8.95183,-4.91372 -0.71138,-2.83436 -1.65488,-2.99171 -8.14289,-1.35801 -4.38332,1.10373 -4.55868,1.28774 -3.98077,4.17728 0.99993,4.99968 4.43949,9.50954 8.95883,11.74658 5.335,2.64078 10.33672,2.67916 17.04357,0.13076 z m -64.13695,-5.41169 c 0.14116,-0.14116 -4.00846,-9.39708 -9.22137,-20.5687 -11.6447,-24.95538 -12.52659,-27.6101 -10.30056,-31.00745 0.89897,-1.37201 2.61036,-2.80428 3.8031,-3.18285 4.40489,-1.39805 7.05649,2.36008 17.88833,25.35331 5.72366,12.14989 10.59645,22.28047 10.8284,22.51244 0.33898,0.33898 10.38859,-3.51673 11.34834,-4.354 0.46014,-0.40142 -21.01714,-46.12726 -23.55151,-50.14197 -4.36413,-6.91323 -10.47816,-8.59911 -17.74352,-4.89261 -3.04263,1.55224 -4.61217,3.27499 -6.14898,6.74921 l -2.06354,4.66497 -1.39329,-2.65918 -1.39328,-2.65917 -5.29693,2.4541 c -2.91332,1.34976 -5.29693,2.84979 -5.29693,3.33342 0,0.48363 6.11472,14.08424 13.58828,30.22359 l 13.58827,29.34426 5.55427,-2.45636 c 3.05485,-1.351 5.66977,-2.57185 5.81092,-2.71301 z m 254.44642,-6.9993 c 7.34369,-16.89599 18.6936,-39.09892 20.47403,-40.05179 2.5858,-1.38388 7.30385,-1.42978 10.78836,-0.10498 2.52899,0.96153 2.76556,0.75124 5.24309,-4.66037 2.12573,-4.64321 2.34354,-5.82637 1.20534,-6.54734 -2.16983,-1.37441 -8.16598,-1.05197 -11.35371,0.61054 -3.88353,2.0254 -3.96269,1.96964 -2.15809,-1.52006 l 1.56638,-3.02906 -5.55283,-2.72336 c -3.05405,-1.49786 -5.77645,-2.49974 -6.04978,-2.22641 -0.45112,0.45111 -19.68755,41.44478 -25.42483,54.18139 l -2.38416,5.29278 4.78084,2.48887 c 2.62945,1.36888 5.28,2.51004 5.8901,2.53591 0.6101,0.0259 1.94896,-1.88489 2.97526,-4.24612 z m -33.37896,-9.94874 c 5.42784,-1.47581 9.18393,-5.24659 11.56478,-11.60998 2.58523,-6.90961 14.52088,-47.92375 14.05161,-48.28512 -0.55366,-0.42635 -11.97933,-3.52798 -11.97933,-3.25192 0,1.6258 -13.38276,45.64931 -14.58193,47.96824 -1.32541,2.56306 -2.2561,3.1567 -4.94891,3.1567 -5.00966,0 -7.2279,-2.11875 -7.1055,-6.78683 0.0569,-2.16739 2.89128,-13.52477 6.29877,-25.23862 3.40748,-11.71384 6.19544,-21.78808 6.19544,-22.3872 0,-1.01705 -10.85455,-4.77491 -11.60341,-4.01711 -0.18805,0.1903 -3.3789,10.80107 -7.09079,23.5795 -7.72052,26.57842 -8.52485,33.2937 -4.64111,38.74792 2.62473,3.68608 8.49024,6.97531 14.59117,8.18233 2.30915,0.45685 4.42573,0.87791 4.70352,0.93569 0.2778,0.0578 2.32336,-0.38935 4.54569,-0.9936 z M 408.14825,196.9431 c 1.21415,-11.94505 2.23709,-25.4613 2.2732,-30.0361 0.0607,-7.69486 -0.14239,-8.55 -2.71226,-11.41784 -4.83522,-5.39587 -13.60098,-5.78654 -19.83362,-0.88395 -3.23288,2.54299 -3.20918,4.8254 -0.24211,-23.32202 1.60448,-15.22108 1.96565,-21.9403 1.20729,-22.46043 -0.59514,-0.40818 -3.4259,-0.74911 -6.29058,-0.75761 l -5.20851,-0.0155 -0.61088,4.79822 c -0.53144,4.17427 -9.22967,91.58144 -9.92677,99.75257 -0.25558,2.99571 -0.18906,3.038 5.80238,3.6888 3.3335,0.3621 6.14751,0.57853 6.25337,0.48098 0.10585,-0.0976 1.34609,-11.29553 2.75609,-24.8844 2.05544,-19.8094 2.93818,-25.21112 4.45312,-27.25002 2.32808,-3.13324 6.74066,-3.81811 9.35518,-1.452 2.52489,2.285 2.51063,7.51236 -0.0893,32.74912 -1.11117,10.78565 -2.0203,20.1649 -2.0203,20.84275 0,1.61125 2.48083,2.23872 8.08086,2.04385 l 4.54531,-0.15817 2.20753,-21.71828 z m -80.84905,19.6722 c 0.32524,-0.84756 0.0565,-8.16919 -0.59731,-16.27029 -0.65375,-8.10109 -1.03091,-14.88699 -0.83813,-15.07977 0.19279,-0.19278 4.44682,6.56063 9.45343,15.00759 l 9.10291,15.35809 6.97648,-0.29111 c 3.83706,-0.16012 7.13846,-0.45312 7.33645,-0.65111 0.19799,-0.19799 -4.4727,-8.1055 -10.37932,-17.57226 l -10.73931,-17.21227 7.00153,-14.96658 7.00153,-14.96658 -5.38912,-0.30217 c -2.96401,-0.16619 -6.19646,0.13201 -7.18321,0.66266 -0.98675,0.53065 -4.52149,7.25787 -7.855,14.94938 -4.24006,9.78325 -6.13789,13.22587 -6.31713,11.45917 -0.14092,-1.38896 -1.39335,-17.03607 -2.78319,-34.77135 -1.38983,-17.73529 -2.7041,-32.4231 -2.92059,-32.63959 -0.21649,-0.21649 -3.05518,-0.0212 -6.30818,0.43396 -5.78904,0.81003 -5.90936,0.89174 -5.66913,3.85025 0.13499,1.66246 1.85324,24.38738 3.81834,50.49982 1.96509,26.11245 3.80716,48.95452 4.09348,50.76017 0.51403,3.24168 0.59032,3.283 6.06236,3.283 4.03536,0 5.70251,-0.4189 6.13311,-1.54101 z"
       id="path4372"
       inkscape:connector-curvature="0" />
  </g>
  <g
     inkscape:groupmode="layer"
     id="layer3"
     inkscape:label="circle"
     style="display:inline"
     transform="translate(0,-304.72441)">
    <ellipse
       style="opacity:1;fill:#007d7d;fill-opacity:1"
       id="path3362"
       cx="-373.57166"
       cy="-675.93359"
       transform="scale(-1,-1)"
       rx="350.71451"
       ry="350.71429" />
    <path
       style="opacity:0;fill:#000000;fill-opacity:1;stroke:#cccccc;stroke-width:10.10152531;stroke-miterlimit:4;stroke-dasharray:none;stroke-opacity:1"
       d="M 343.83855,839.64564 C 206.68433,828.3607 87.497245,735.64362 42.690535,605.37896 27.818974,562.14348 25.14909,544.55666 25.232456,490.38061 25.314185,437.26751 27.680224,421.18621 41.482746,379.932 72.527872,287.14153 141.56569,211.36776 231.71137,171.14297 c 127.62437,-56.94853 276.63979,-31.824 380.42539,64.14108 67.32107,62.24824 106.37359,147.86533 110.36728,241.96457 1.89935,44.752 -3.32511,81.8241 -17.58584,124.78679 -39.23465,118.20058 -139.08411,206.7932 -261.19763,231.75076 -17.14861,3.50482 -67.16684,8.65749 -76.11946,7.84151 -1.66675,-0.15193 -12.3599,-1.04383 -23.76256,-1.98204 z"
       id="path4378"
       inkscape:connector-curvature="0" />
    <path
       style="opacity:0;fill:#000000;fill-opacity:1;stroke:#cccccc;stroke-width:10.10152531;stroke-miterlimit:4;stroke-dasharray:none;stroke-opacity:1"
       d="M 343.83855,839.64564 C 206.68433,828.3607 87.497245,735.64362 42.690535,605.37896 27.818974,562.14348 25.14909,544.55666 25.232456,490.38061 25.314185,437.26751 27.680224,421.18621 41.482746,379.932 72.527872,287.14153 141.56569,211.36776 231.71137,171.14297 c 127.62437,-56.94853 276.63979,-31.824 380.42539,64.14108 67.32107,62.24824 106.37359,147.86533 110.36728,241.96457 1.89935,44.752 -3.32511,81.8241 -17.58584,124.78679 -39.23465,118.20058 -139.08411,206.7932 -261.19763,231.75076 -17.14861,3.50482 -67.16684,8.65749 -76.11946,7.84151 -1.66675,-0.15193 -12.3599,-1.04383 -23.76256,-1.98204 z"
       id="path4380"
       inkscape:connector-curvature="0" />
    <path
       style="opacity:0;fill:#000000;fill-opacity:1;stroke:#cccccc;stroke-width:10.10152531;stroke-miterlimit:4;stroke-dasharray:none;stroke-opacity:1"
       d="M 343.83855,839.64564 C 206.68433,828.3607 87.497245,735.64362 42.690535,605.37896 27.818974,562.14348 25.14909,544.55666 25.232456,490.38061 25.314185,437.26751 27.680224,421.18621 41.482746,379.932 72.527872,287.14153 141.56569,211.36776 231.71137,171.14297 c 127.62437,-56.94853 276.63979,-31.824 380.42539,64.14108 67.32107,62.24824 106.37359,147.86533 110.36728,241.96457 1.89935,44.752 -3.32511,81.8241 -17.58584,124.78679 -39.23465,118.20058 -139.08411,206.7932 -261.19763,231.75076 -17.14861,3.50482 -67.16684,8.65749 -76.11946,7.84151 -1.66675,-0.15193 -12.3599,-1.04383 -23.76256,-1.98204 z"
       id="path4382"
       inkscape:connector-curvature="0" />
  </g>
  <g
     inkscape:groupmode="layer"
     id="layer4"
     inkscape:label="engle"
     style="display:inline"
     transform="translate(0,-304.72441)">
    <path
       style="color:#000000;font-style:normal;font-variant:normal;font-weight:normal;font-stretch:normal;font-size:medium;line-height:normal;font-family:sans-serif;text-indent:0;text-align:start;text-decoration:none;text-decoration-line:none;text-decoration-style:solid;text-decoration-color:#000000;letter-spacing:normal;word-spacing:normal;text-transform:none;direction:ltr;block-progression:tb;writing-mode:lr-tb;baseline-shift:baseline;text-anchor:start;white-space:normal;clip-rule:nonzero;display:inline;overflow:visible;visibility:visible;opacity:0;isolation:auto;mix-blend-mode:normal;color-interpolation:sRGB;color-interpolation-filters:linearRGB;solid-color:#000000;solid-opacity:1;fill:#cccccc;fill-opacity:1;fill-rule:nonzero;stroke:none;stroke-width:1;stroke-linecap:butt;stroke-linejoin:miter;stroke-miterlimit:4;stroke-dasharray:none;stroke-dashoffset:0;stroke-opacity:1;color-rendering:auto;image-rendering:auto;shape-rendering:auto;text-rendering:auto;enable-background:accumulate"
       d="m 221.33753,448.37617 c 74.34381,-81.64603 200.8137,-87.56635 282.45973,-13.22252 81.64603,74.34383 87.56634,200.81371 13.2225,282.45975 -74.34382,81.64602 -200.8137,87.56632 -282.45972,13.2225 -81.64601,-74.34383 -87.56636,-200.81371 -13.22251,-282.45973 z m 0.73734,0.67143 c -73.98097,81.24752 -68.09099,207.06997 13.15656,281.05096 81.24752,73.98098 207.06999,68.09095 281.05095,-13.15656 73.98098,-81.24757 68.09098,-207.07 -13.15654,-281.05095 -81.24755,-73.981 -207.07001,-68.09099 -281.05097,13.15655 z"
       id="path3478"
       inkscape:connector-curvature="0" />
    <text
       xml:space="preserve"
       style="font-style:normal;font-weight:normal;font-size:34.74453735px;line-height:133.00000429%;font-family:Sans;letter-spacing:0px;word-spacing:0px;fill:#000000;fill-opacity:1;stroke:none;stroke-width:1px;stroke-linecap:butt;stroke-linejoin:miter;stroke-opacity:1"
       id="text3483"
       sodipodi:linespacing="133%"
       x="-162.64648"
       y="-98.385201"
       transform="translate(10.101526,67.68022)"><textPath
         xlink:href="#path3478"
         id="textPath3506"
         style="font-style:normal;font-variant:normal;font-weight:normal;font-stretch:normal;font-size:130.29200745px;line-height:0%;font-family:Arial;-inkscape-font-specification:Arial;letter-spacing:0px;fill:#ffffff">oreisoft</textPath></text>
    <path
       style="opacity:0;fill:#cccccc;fill-opacity:1;stroke:#cccccc;stroke-width:5.05076265;stroke-miterlimit:4;stroke-dasharray:none;stroke-opacity:1"
       d="m 228.87379,619.38378 c -40.14437,-10.47075 -73.43375,-19.18832 -73.97641,-19.37237 -0.54266,-0.18405 11.09406,-11.14151 25.85936,-24.34991 l 26.84601,-24.01527 3.18876,1.92316 c 1.75382,1.05773 25.00806,14.08837 51.67609,28.95696 26.66802,14.86859 48.59128,27.11108 48.71834,27.20554 0.62737,0.46637 -7.53651,28.23042 -8.36354,28.44307 -0.52737,0.1356 -33.80425,-8.32043 -73.94861,-18.79118 z"
       id="path4388"
       inkscape:connector-curvature="0" />
    <path
       style="opacity:0;fill:#cccccc;fill-opacity:1;stroke:#cccccc;stroke-width:5.05076265;stroke-miterlimit:4;stroke-dasharray:none;stroke-opacity:1"
       d="m 228.87379,619.38378 c -40.14437,-10.47075 -73.43375,-19.18832 -73.97641,-19.37237 -0.54266,-0.18405 11.09406,-11.14151 25.85936,-24.34991 l 26.84601,-24.01527 3.18876,1.92316 c 1.75382,1.05773 25.00806,14.08837 51.67609,28.95696 26.66802,14.86859 48.59128,27.11108 48.71834,27.20554 0.62737,0.46637 -7.53651,28.23042 -8.36354,28.44307 -0.52737,0.1356 -33.80425,-8.32043 -73.94861,-18.79118 z"
       id="path4390"
       inkscape:connector-curvature="0" />
    <path
       style="opacity:0;fill:#cccccc;fill-opacity:1;stroke:#cccccc;stroke-width:5.05076265;stroke-miterlimit:4;stroke-dasharray:none;stroke-opacity:1"
       d="m 228.87379,619.38378 c -40.14437,-10.47075 -73.43375,-19.18832 -73.97641,-19.37237 -0.54266,-0.18405 11.09406,-11.14151 25.85936,-24.34991 l 26.84601,-24.01527 3.18876,1.92316 c 1.75382,1.05773 25.00806,14.08837 51.67609,28.95696 26.66802,14.86859 48.59128,27.11108 48.71834,27.20554 0.62737,0.46637 -7.53651,28.23042 -8.36354,28.44307 -0.52737,0.1356 -33.80425,-8.32043 -73.94861,-18.79118 z"
       id="path4392"
       inkscape:connector-curvature="0" />
    <path
       style="opacity:0;fill:#cccccc;fill-opacity:1;stroke:#cccccc;stroke-width:5.05076265;stroke-miterlimit:4;stroke-dasharray:none;stroke-opacity:1"
       d="m 228.87379,619.38378 c -40.14437,-10.47075 -73.43375,-19.18832 -73.97641,-19.37237 -0.54266,-0.18405 11.09406,-11.14151 25.85936,-24.34991 l 26.84601,-24.01527 3.18876,1.92316 c 1.75382,1.05773 25.00806,14.08837 51.67609,28.95696 26.66802,14.86859 48.59128,27.11108 48.71834,27.20554 0.62737,0.46637 -7.53651,28.23042 -8.36354,28.44307 -0.52737,0.1356 -33.80425,-8.32043 -73.94861,-18.79118 z"
       id="path4394"
       inkscape:connector-curvature="0" />
    <path
       style="opacity:0;fill:#cccccc;fill-opacity:1;stroke:#cccccc;stroke-width:5.05076265;stroke-miterlimit:4;stroke-dasharray:none;stroke-opacity:1"
       d="m 228.87379,619.38378 c -40.14437,-10.47075 -73.43375,-19.18832 -73.97641,-19.37237 -0.54266,-0.18405 11.09406,-11.14151 25.85936,-24.34991 l 26.84601,-24.01527 3.18876,1.92316 c 1.75382,1.05773 25.00806,14.08837 51.67609,28.95696 26.66802,14.86859 48.59128,27.11108 48.71834,27.20554 0.62737,0.46637 -7.53651,28.23042 -8.36354,28.44307 -0.52737,0.1356 -33.80425,-8.32043 -73.94861,-18.79118 z"
       id="path4396"
       inkscape:connector-curvature="0" />
    <path
       style="opacity:0;fill:#cccccc;fill-opacity:1;stroke:#cccccc;stroke-width:5.05076265;stroke-miterlimit:4;stroke-dasharray:none;stroke-opacity:1"
       d="m 228.87379,619.38378 c -40.14437,-10.47075 -73.43375,-19.18832 -73.97641,-19.37237 -0.54266,-0.18405 11.09406,-11.14151 25.85936,-24.34991 l 26.84601,-24.01527 3.18876,1.92316 c 1.75382,1.05773 25.00806,14.08837 51.67609,28.95696 26.66802,14.86859 48.59128,27.11108 48.71834,27.20554 0.62737,0.46637 -7.53651,28.23042 -8.36354,28.44307 -0.52737,0.1356 -33.80425,-8.32043 -73.94861,-18.79118 z"
       id="path4398"
       inkscape:connector-curvature="0" />
    <path
       style="opacity:0;fill:#cccccc;fill-opacity:1;stroke:#cccccc;stroke-width:5.05076265;stroke-miterlimit:4;stroke-dasharray:none;stroke-opacity:1"
       d="m 228.87379,619.38378 c -40.14437,-10.47075 -73.43375,-19.18832 -73.97641,-19.37237 -0.54266,-0.18405 11.09406,-11.14151 25.85936,-24.34991 l 26.84601,-24.01527 3.18876,1.92316 c 1.75382,1.05773 25.00806,14.08837 51.67609,28.95696 26.66802,14.86859 48.59128,27.11108 48.71834,27.20554 0.62737,0.46637 -7.53651,28.23042 -8.36354,28.44307 -0.52737,0.1356 -33.80425,-8.32043 -73.94861,-18.79118 z"
       id="path4400"
       inkscape:connector-curvature="0" />
    <text
       xml:space="preserve"
       style="font-style:normal;font-weight:normal;font-size:24px;line-height:125%;font-family:Sans;letter-spacing:0px;word-spacing:0px;fill:#000000;fill-opacity:1;stroke:none;stroke-width:1px;stroke-linecap:butt;stroke-linejoin:miter;stroke-opacity:1"
       id="text3415"
       sodipodi:linespacing="125%"><textPath
         xlink:href="#path3419"
         id="textPath3422"><tspan
   style="font-style:normal;font-variant:normal;font-weight:normal;font-stretch:normal;font-size:90px;font-family:'Arial Unicode MS';-inkscape-font-specification:'Arial Unicode MS';fill:#ffffff"
   id="tspan3417">Panaoke</tspan></textPath></text>
    <path
       style="opacity:0.5;fill:#ffffff;fill-opacity:1;stroke:none;stroke-width:5;stroke-miterlimit:4;stroke-dasharray:none;stroke-opacity:1"
       d="M 204.64494,656.94171 A 165.66501,165.66501 0 0 1 407.5423,539.79885 165.66501,165.66501 0 0 1 524.68517,742.69623 165.66501,165.66501 0 0 1 321.78778,859.83909 165.66501,165.66501 0 0 1 204.64494,656.94171 Z"
       id="path3419"
       inkscape:connector-curvature="0" />
    <text
       xml:space="preserve"
       style="font-style:normal;font-weight:normal;font-size:24px;line-height:125%;font-family:Sans;letter-spacing:0px;word-spacing:0px;fill:#000000;fill-opacity:1;stroke:none;stroke-width:1px;stroke-linecap:butt;stroke-linejoin:miter;stroke-opacity:1"
       id="text3425"
       sodipodi:linespacing="125%"
       transform="matrix(-0.99973997,-0.02280334,0.02280334,-0.99973997,709.46061,1419.5028)"><textPath
         xlink:href="#path3419"
         id="textPath3433"><tspan
   style="font-size:90px;fill:#ffffff"
   id="tspan3427">Sennmac</tspan></textPath></text>
    <text
       xml:space="preserve"
       style="font-style:normal;font-weight:normal;font-size:37.15250015px;line-height:125%;font-family:Sans;letter-spacing:0px;word-spacing:0px;fill:#ccff00;fill-opacity:1;stroke:none;stroke-width:1px;stroke-linecap:butt;stroke-linejoin:miter;stroke-opacity:1;"
       x="80.615555"
       y="767.59662"
       id="text3429"
       sodipodi:linespacing="125%"><tspan
         sodipodi:role="line"
         id="tspan3431"
         x="80.615555"
         y="767.59662"
         style="font-size:139.3218689px;fill:#ccff00;">Seatbelt</tspan></text>
  </g>
</svg>
